<svg xmlns="http://www.w3.org/2000/svg" viewBox="0 0 204.16 114.15"><defs><style>.cls-1{fill:#002b49;}.cls-2{fill:#006072;}.cls-3{fill:#071c2c;}</style></defs><title>accesslex-logo</title><g id="Layer_2" data-name="Layer 2"><g id="menu"><path class="cls-1" d="M46.87,71,44.2,74.17a8.52,8.52,0,0,0-6.44-2.54c-3.89,0-6.69,2.92-6.69,7.2S33.87,86,37.77,86a8.39,8.39,0,0,0,6.65-2.71L47.12,86c-2,2.67-5.29,4.19-9.57,4.19-6.69,0-11.35-4.61-11.35-11.39s4.66-11.47,11.35-11.47c4.06,0,7.24,1.31,9.31,3.68"/><path class="cls-1" d="M69.86,71l-2.67,3.13a8.51,8.51,0,0,0-6.44-2.54c-3.9,0-6.69,2.92-6.69,7.2S56.86,86,60.76,86a8.39,8.39,0,0,0,6.65-2.71L70.11,86c-2,2.67-5.29,4.19-9.57,4.19-6.69,0-11.35-4.61-11.35-11.39s4.66-11.47,11.35-11.47c4.07,0,7.24,1.31,9.31,3.68"/><path class="cls-1" d="M94.12,80.65h-17a6.86,6.86,0,0,0,7,5.63,8.76,8.76,0,0,0,6.35-2.63L93,86.41a12.26,12.26,0,0,1-9.31,3.81c-6.94,0-11.52-4.61-11.52-11.39s4.7-11.43,11.39-11.47c7.92,0,11.14,5.17,10.54,13.29m-4.23-3.56c-.17-3.64-2.58-5.84-6.27-5.84A6.41,6.41,0,0,0,77,77.09Z"/><path class="cls-1" d="M113.8,69.6,112,73.2a13.22,13.22,0,0,0-6.48-2c-1.91,0-3.3.63-3.3,2.24,0,4.15,12,1.9,11.94,10.08,0,4.61-4.11,6.69-8.64,6.69a13.93,13.93,0,0,1-9.06-3.13l1.74-3.47a12.28,12.28,0,0,0,7.54,2.79c2.08,0,3.68-.72,3.68-2.41,0-4.61-11.86-2-11.81-10.16,0-4.57,4-6.52,8.3-6.52a14.24,14.24,0,0,1,7.87,2.29"/><path class="cls-1" d="M133.7,69.6l-1.78,3.6a13.23,13.23,0,0,0-6.48-2c-1.91,0-3.3.63-3.3,2.24,0,4.15,12,1.9,11.94,10.08,0,4.61-4.11,6.69-8.64,6.69a13.93,13.93,0,0,1-9.06-3.13l1.74-3.47a12.27,12.27,0,0,0,7.54,2.79c2.08,0,3.68-.72,3.68-2.41,0-4.61-11.86-2-11.81-10.16,0-4.57,4-6.52,8.3-6.52a14.24,14.24,0,0,1,7.87,2.29"/><polygon class="cls-2" points="157.11 85.52 157.11 90.05 139.29 90.05 139.29 60.41 144.28 60.41 144.28 85.52 157.11 85.52"/><path class="cls-2" d="M181.41,80.65h-17a6.86,6.86,0,0,0,7,5.63,8.76,8.76,0,0,0,6.35-2.63l2.58,2.75A12.25,12.25,0,0,1,171,90.22c-6.94,0-11.52-4.61-11.52-11.39s4.7-11.43,11.39-11.47c7.92,0,11.14,5.17,10.54,13.29m-4.23-3.56c-.17-3.64-2.58-5.84-6.27-5.84a6.41,6.41,0,0,0-6.6,5.84Z"/><polygon class="cls-2" points="203.87 67.52 198.47 67.52 193.73 74.56 196.43 78.57 203.87 67.52"/><polygon class="cls-2" points="183.29 90.05 188.69 90.05 193.73 82.57 191.03 78.57 183.29 90.05"/><rect class="cls-1" x="54.3" y="100.87" width="1.51" height="13.2"/><polygon class="cls-1" points="70.19 114.07 62.26 103.47 62.26 114.07 60.75 114.07 60.75 100.87 62.32 100.87 70.24 111.49 70.24 100.87 71.73 100.87 71.73 114.07 70.19 114.07"/><path class="cls-1" d="M84.8,102l-.64,1.41a6.82,6.82,0,0,0-3.64-1.11c-1.7,0-2.81.64-2.81,1.75,0,3.39,7.43,1.62,7.41,6.41,0,2.21-1.94,3.62-4.77,3.62a7.55,7.55,0,0,1-5.06-2l.68-1.36a6.57,6.57,0,0,0,4.4,1.87c1.9,0,3.09-.77,3.09-2,0-3.47-7.41-1.62-7.41-6.36,0-2.07,1.83-3.41,4.57-3.41A7.81,7.81,0,0,1,84.8,102"/><polygon class="cls-1" points="93.18 102.32 93.18 114.07 91.67 114.07 91.67 102.32 87.37 102.32 87.37 100.87 97.5 100.87 97.5 102.32 93.18 102.32"/><rect class="cls-1" x="100.63" y="100.87" width="1.51" height="13.2"/><polygon class="cls-1" points="111.1 102.32 111.1 114.07 109.59 114.07 109.59 102.32 105.29 102.32 105.29 100.87 115.42 100.87 115.42 102.32 111.1 102.32"/><path class="cls-1" d="M129.34,108.64c0,3.43-2.08,5.51-5.53,5.51s-5.56-2.08-5.56-5.51v-7.77h1.51v7.77a4,4,0,1,0,8.07,0v-7.77h1.51Z"/><polygon class="cls-1" points="138 102.32 138 114.07 136.49 114.07 136.49 102.32 132.19 102.32 132.19 100.87 142.32 100.87 142.32 102.32 138 102.32"/><polygon class="cls-1" points="146.96 102.32 146.96 106.66 153.62 106.66 153.62 108.11 146.96 108.11 146.96 112.64 154.66 112.64 154.66 114.07 145.45 114.07 145.45 100.87 154.41 100.87 154.41 102.32 146.96 102.32"/><polygon class="cls-3" points="193.72 74.56 191.03 78.57 193.72 82.57 196.43 78.57 193.72 74.56"/><polygon class="cls-1" points="120.31 52.31 127.22 52.31 105.1 0 101.4 8.31 120.31 52.31"/><polygon class="cls-2" points="110.06 45.82 91.81 45.82 101.29 24.52 97.8 16.39 81.8 52.31 113.24 52.31 110.45 45.82 110.06 45.82"/><polygon class="cls-1" points="20.76 90.22 10.42 64.55 12.93 58.4 26.07 90.22 20.76 90.22"/><polygon class="cls-2" points="9.28 79.98 11.44 74.55 8.89 68.3 0 90.05 5.29 90.05 7.7 83.98 15.29 83.98 13.65 79.98 9.28 79.98"/><polygon class="cls-1" points="204.16 90.05 196.43 78.57 193.72 82.57 198.76 90.05 204.16 90.05"/><polygon class="cls-1" points="188.98 67.52 183.58 67.52 191.03 78.57 193.72 74.56 188.98 67.52"/><path class="cls-1" d="M157.18,103.65a1.85,1.85,0,0,1,0-3.2,1.89,1.89,0,0,1,1.86,0,1.84,1.84,0,0,1,.92,1.6,1.83,1.83,0,0,1-.24.91,1.77,1.77,0,0,1-.67.68,1.82,1.82,0,0,1-.95.26,1.85,1.85,0,0,1-.93-.24m2.29-2.38a1.59,1.59,0,0,0-1.36-.78,1.51,1.51,0,0,0-.78.21,1.57,1.57,0,0,0-.57.57,1.53,1.53,0,0,0,0,1.55,1.57,1.57,0,0,0,.57.57,1.55,1.55,0,0,0,1.56,0,1.58,1.58,0,0,0,.58-.57,1.53,1.53,0,0,0,0-1.55m-1.15-.24a.87.87,0,0,1,.52.13.47.47,0,0,1,.18.4q0,.53-.64.55l.61.93h-.34l-.6-.93h-.34V103h-.28v-2Zm0,.8a.64.64,0,0,0,.35-.07.22.22,0,0,0,.11-.2.2.2,0,0,0-.13-.19.83.83,0,0,0-.34-.06h-.56v.52Z"/></g></g></svg>